<svg xmlns="http://www.w3.org/2000/svg" viewBox="0 0 120 120" fill="none">
  <defs>
    <linearGradient id="grad" x1="0%" y1="0%" x2="100%" y2="100%">
      <stop offset="0%" style="stop-color:#14b8a6"/>
      <stop offset="100%" style="stop-color:#0d9488"/>
    </linearGradient>
  </defs>
  <rect width="120" height="120" rx="24" fill="#18181b"/>
  <g transform="translate(20, 28)">
    <path d="M10 20 L30 20 L30 24 L10 24 Z" fill="#71717a"/>
    <path d="M10 32 L40 32 L40 36 L10 36 Z" fill="#71717a"/>
    <path d="M10 44 L35 44 L35 48 L10 48 Z" fill="#71717a"/>
  </g>
  <path d="M55 45 L70 55 L55 65" stroke="url(#grad)" stroke-width="4" stroke-linecap="round" stroke-linejoin="round" fill="none"/>
  <g transform="translate(75, 28)">
    <rect x="0" y="0" width="28" height="8" rx="2" fill="#14b8a6"/>
    <rect x="0" y="12" width="28" height="8" rx="2" fill="#0d9488"/>
    <rect x="0" y="24" width="28" height="8" rx="2" fill="#14b8a6"/>
    <rect x="0" y="36" width="28" height="8" rx="2" fill="#0d9488"/>
  </g>
  <text x="60" y="100" text-anchor="middle" font-family="system-ui, -apple-system, sans-serif" font-size="12" font-weight="600" fill="#a1a1aa">CLASH</text>
</svg>
